<mxfile host="app.diagrams.net" modified="2021-09-11T07:35:22.477Z" agent="5.0 (Macintosh; Intel Mac OS X 10_15_7) AppleWebKit/537.36 (KHTML, like Gecko) Chrome/89.0.4389.90 Safari/537.36" etag="F9ejofiCl6C-uETipQz1" version="15.1.4" type="github">
  <diagram id="mSh6Ika45wB9mhSGqDFz" name="Page-1">
    <mxGraphModel dx="1248" dy="1391" grid="1" gridSize="10" guides="1" tooltips="1" connect="1" arrows="1" fold="1" page="1" pageScale="1" pageWidth="291" pageHeight="413" math="0" shadow="0">
      <root>
        <mxCell id="0" />
        <mxCell id="1" parent="0" />
        <mxCell id="lA7uYYmeE6Qmd-85u6qz-90" value="" style="endArrow=none;html=1;strokeWidth=2;" parent="1" edge="1">
          <mxGeometry width="50" height="50" relative="1" as="geometry">
            <mxPoint x="448" y="182" as="sourcePoint" />
            <mxPoint x="399" y="256" as="targetPoint" />
          </mxGeometry>
        </mxCell>
        <mxCell id="lA7uYYmeE6Qmd-85u6qz-89" value="" style="endArrow=none;html=1;strokeWidth=2;" parent="1" edge="1">
          <mxGeometry width="50" height="50" relative="1" as="geometry">
            <mxPoint x="401" y="299" as="sourcePoint" />
            <mxPoint x="420" y="270" as="targetPoint" />
          </mxGeometry>
        </mxCell>
        <mxCell id="lA7uYYmeE6Qmd-85u6qz-1" value="" style="endArrow=classic;html=1;" parent="1" edge="1">
          <mxGeometry width="50" height="50" relative="1" as="geometry">
            <mxPoint x="20" y="170" as="sourcePoint" />
            <mxPoint x="360.8657982235863" y="170" as="targetPoint" />
          </mxGeometry>
        </mxCell>
        <mxCell id="lA7uYYmeE6Qmd-85u6qz-2" value="" style="endArrow=classic;html=1;" parent="1" edge="1">
          <mxGeometry width="50" height="50" relative="1" as="geometry">
            <mxPoint x="30" y="180" as="sourcePoint" />
            <mxPoint x="28" y="-80" as="targetPoint" />
          </mxGeometry>
        </mxCell>
        <mxCell id="lA7uYYmeE6Qmd-85u6qz-3" value="" style="ellipse;whiteSpace=wrap;html=1;" parent="1" vertex="1">
          <mxGeometry x="201" y="75" width="10" height="10" as="geometry" />
        </mxCell>
        <mxCell id="lA7uYYmeE6Qmd-85u6qz-4" value="(dirX, dirY)" style="text;html=1;strokeColor=none;fillColor=none;align=center;verticalAlign=middle;whiteSpace=wrap;rounded=0;" parent="1" vertex="1">
          <mxGeometry x="120" y="90" width="90" height="20" as="geometry" />
        </mxCell>
        <mxCell id="lA7uYYmeE6Qmd-85u6qz-5" value="(posX, posY)" style="text;html=1;strokeColor=none;fillColor=none;align=center;verticalAlign=middle;whiteSpace=wrap;rounded=0;" parent="1" vertex="1">
          <mxGeometry x="201" y="60" width="90" height="20" as="geometry" />
        </mxCell>
        <mxCell id="lA7uYYmeE6Qmd-85u6qz-6" value="" style="endArrow=classic;html=1;exitX=0;exitY=1;exitDx=0;exitDy=0;" parent="1" source="lA7uYYmeE6Qmd-85u6qz-5" edge="1">
          <mxGeometry width="50" height="50" relative="1" as="geometry">
            <mxPoint x="200" y="80" as="sourcePoint" />
            <mxPoint x="120" y="80" as="targetPoint" />
          </mxGeometry>
        </mxCell>
        <mxCell id="lA7uYYmeE6Qmd-85u6qz-7" value="(-1, 0)" style="text;html=1;strokeColor=none;fillColor=none;align=center;verticalAlign=middle;whiteSpace=wrap;rounded=0;" parent="1" vertex="1">
          <mxGeometry x="120" y="110" width="90" height="20" as="geometry" />
        </mxCell>
        <mxCell id="lA7uYYmeE6Qmd-85u6qz-8" value="(22, 12)" style="text;html=1;strokeColor=none;fillColor=none;align=center;verticalAlign=middle;whiteSpace=wrap;rounded=0;" parent="1" vertex="1">
          <mxGeometry x="200" y="75" width="90" height="20" as="geometry" />
        </mxCell>
        <mxCell id="lA7uYYmeE6Qmd-85u6qz-9" value="" style="endArrow=classic;html=1;" parent="1" edge="1">
          <mxGeometry width="50" height="50" relative="1" as="geometry">
            <mxPoint x="120" y="80" as="sourcePoint" />
            <mxPoint x="120" y="20" as="targetPoint" />
          </mxGeometry>
        </mxCell>
        <mxCell id="lA7uYYmeE6Qmd-85u6qz-11" value="(planeX, planeY)" style="text;html=1;strokeColor=none;fillColor=none;align=center;verticalAlign=middle;whiteSpace=wrap;rounded=0;" parent="1" vertex="1">
          <mxGeometry x="20" y="20" width="100" height="20" as="geometry" />
        </mxCell>
        <mxCell id="lA7uYYmeE6Qmd-85u6qz-12" value="(0, 0.66)" style="text;html=1;strokeColor=none;fillColor=none;align=center;verticalAlign=middle;whiteSpace=wrap;rounded=0;" parent="1" vertex="1">
          <mxGeometry x="20" y="40" width="100" height="20" as="geometry" />
        </mxCell>
        <mxCell id="lA7uYYmeE6Qmd-85u6qz-13" value="" style="endArrow=none;html=1;" parent="1" edge="1">
          <mxGeometry width="50" height="50" relative="1" as="geometry">
            <mxPoint x="130" y="-60" as="sourcePoint" />
            <mxPoint x="130" y="-110" as="targetPoint" />
          </mxGeometry>
        </mxCell>
        <mxCell id="lA7uYYmeE6Qmd-85u6qz-14" value="" style="endArrow=none;html=1;" parent="1" edge="1">
          <mxGeometry width="50" height="50" relative="1" as="geometry">
            <mxPoint x="130" y="-60" as="sourcePoint" />
            <mxPoint x="190" y="-60" as="targetPoint" />
          </mxGeometry>
        </mxCell>
        <mxCell id="lA7uYYmeE6Qmd-85u6qz-15" value="" style="endArrow=none;html=1;" parent="1" edge="1">
          <mxGeometry width="50" height="50" relative="1" as="geometry">
            <mxPoint x="190" y="-60" as="sourcePoint" />
            <mxPoint x="130" y="-110" as="targetPoint" />
          </mxGeometry>
        </mxCell>
        <mxCell id="lA7uYYmeE6Qmd-85u6qz-16" value="0.66" style="text;html=1;strokeColor=none;fillColor=none;align=center;verticalAlign=middle;whiteSpace=wrap;rounded=0;" parent="1" vertex="1">
          <mxGeometry x="60" y="-100" width="100" height="20" as="geometry" />
        </mxCell>
        <mxCell id="lA7uYYmeE6Qmd-85u6qz-17" value="1" style="text;html=1;strokeColor=none;fillColor=none;align=center;verticalAlign=middle;whiteSpace=wrap;rounded=0;" parent="1" vertex="1">
          <mxGeometry x="110" y="-60" width="100" height="20" as="geometry" />
        </mxCell>
        <mxCell id="lA7uYYmeE6Qmd-85u6qz-18" value="33.42도" style="text;html=1;strokeColor=none;fillColor=none;align=center;verticalAlign=middle;whiteSpace=wrap;rounded=0;" parent="1" vertex="1">
          <mxGeometry x="186" y="-70" width="54" height="20" as="geometry" />
        </mxCell>
        <mxCell id="lA7uYYmeE6Qmd-85u6qz-19" value="" style="endArrow=none;html=1;exitX=0;exitY=0.25;exitDx=0;exitDy=0;" parent="1" source="lA7uYYmeE6Qmd-85u6qz-8" edge="1">
          <mxGeometry width="50" height="50" relative="1" as="geometry">
            <mxPoint x="200" y="-50" as="sourcePoint" />
            <mxPoint x="60" y="-20" as="targetPoint" />
          </mxGeometry>
        </mxCell>
        <mxCell id="lA7uYYmeE6Qmd-85u6qz-20" value="" style="endArrow=none;html=1;exitX=0;exitY=0.25;exitDx=0;exitDy=0;" parent="1" source="lA7uYYmeE6Qmd-85u6qz-8" edge="1">
          <mxGeometry width="50" height="50" relative="1" as="geometry">
            <mxPoint x="210" y="90" as="sourcePoint" />
            <mxPoint x="40" y="200" as="targetPoint" />
          </mxGeometry>
        </mxCell>
        <mxCell id="lA7uYYmeE6Qmd-85u6qz-21" value="" style="endArrow=classic;html=1;" parent="1" edge="1">
          <mxGeometry width="50" height="50" relative="1" as="geometry">
            <mxPoint x="120" y="140" as="sourcePoint" />
            <mxPoint x="120" y="80" as="targetPoint" />
          </mxGeometry>
        </mxCell>
        <mxCell id="lA7uYYmeE6Qmd-85u6qz-22" value="66.84도" style="text;html=1;strokeColor=none;fillColor=none;align=center;verticalAlign=middle;whiteSpace=wrap;rounded=0;" parent="1" vertex="1">
          <mxGeometry x="218" y="40" width="54" height="20" as="geometry" />
        </mxCell>
        <mxCell id="lA7uYYmeE6Qmd-85u6qz-23" value="(rayDirX, rayDirY)" style="text;html=1;strokeColor=none;fillColor=none;align=center;verticalAlign=middle;whiteSpace=wrap;rounded=0;" parent="1" vertex="1">
          <mxGeometry x="130" y="10" width="100" height="20" as="geometry" />
        </mxCell>
        <mxCell id="lA7uYYmeE6Qmd-85u6qz-24" value="" style="endArrow=classic;html=1;fillColor=#f8cecc;strokeColor=#b85450;" parent="1" edge="1">
          <mxGeometry width="50" height="50" relative="1" as="geometry">
            <mxPoint x="440" y="30" as="sourcePoint" />
            <mxPoint x="560" y="-150" as="targetPoint" />
          </mxGeometry>
        </mxCell>
        <mxCell id="lA7uYYmeE6Qmd-85u6qz-25" value="" style="endArrow=classic;html=1;" parent="1" edge="1">
          <mxGeometry width="50" height="50" relative="1" as="geometry">
            <mxPoint x="440" y="30" as="sourcePoint" />
            <mxPoint x="560" y="30" as="targetPoint" />
          </mxGeometry>
        </mxCell>
        <mxCell id="lA7uYYmeE6Qmd-85u6qz-26" value="" style="endArrow=classic;html=1;" parent="1" edge="1">
          <mxGeometry width="50" height="50" relative="1" as="geometry">
            <mxPoint x="560" y="30" as="sourcePoint" />
            <mxPoint x="560" y="-150" as="targetPoint" />
          </mxGeometry>
        </mxCell>
        <mxCell id="lA7uYYmeE6Qmd-85u6qz-27" value="" style="endArrow=none;dashed=1;html=1;" parent="1" edge="1">
          <mxGeometry width="50" height="50" relative="1" as="geometry">
            <mxPoint x="460" y="60" as="sourcePoint" />
            <mxPoint x="460" y="5" as="targetPoint" />
          </mxGeometry>
        </mxCell>
        <mxCell id="lA7uYYmeE6Qmd-85u6qz-28" value="" style="endArrow=none;dashed=1;html=1;" parent="1" edge="1">
          <mxGeometry width="50" height="50" relative="1" as="geometry">
            <mxPoint x="510" y="60" as="sourcePoint" />
            <mxPoint x="510" y="-60" as="targetPoint" />
          </mxGeometry>
        </mxCell>
        <mxCell id="lA7uYYmeE6Qmd-85u6qz-30" value="1" style="text;html=1;strokeColor=none;fillColor=none;align=center;verticalAlign=middle;whiteSpace=wrap;rounded=0;" parent="1" vertex="1">
          <mxGeometry x="466" width="40" height="20" as="geometry" />
        </mxCell>
        <mxCell id="lA7uYYmeE6Qmd-85u6qz-32" value="a" style="text;html=1;strokeColor=none;fillColor=none;align=center;verticalAlign=middle;whiteSpace=wrap;rounded=0;" parent="1" vertex="1">
          <mxGeometry x="510" y="-40" width="20" height="20" as="geometry" />
        </mxCell>
        <mxCell id="lA7uYYmeE6Qmd-85u6qz-33" value="rayDirX" style="text;html=1;strokeColor=none;fillColor=none;align=center;verticalAlign=middle;whiteSpace=wrap;rounded=0;" parent="1" vertex="1">
          <mxGeometry x="490" y="40" width="40" height="20" as="geometry" />
        </mxCell>
        <mxCell id="lA7uYYmeE6Qmd-85u6qz-34" value="rayDirY" style="text;html=1;strokeColor=none;fillColor=none;align=center;verticalAlign=middle;whiteSpace=wrap;rounded=0;" parent="1" vertex="1">
          <mxGeometry x="570" y="-40" width="40" height="20" as="geometry" />
        </mxCell>
        <mxCell id="lA7uYYmeE6Qmd-85u6qz-39" value="" style="endArrow=none;dashed=1;html=1;strokeWidth=0.5;" parent="1" edge="1">
          <mxGeometry width="50" height="50" relative="1" as="geometry">
            <mxPoint x="410" y="110" as="sourcePoint" />
            <mxPoint x="410" y="-140" as="targetPoint" />
          </mxGeometry>
        </mxCell>
        <mxCell id="lA7uYYmeE6Qmd-85u6qz-40" value="" style="endArrow=none;dashed=1;html=1;strokeWidth=0.5;" parent="1" edge="1">
          <mxGeometry width="50" height="50" relative="1" as="geometry">
            <mxPoint x="460" y="110" as="sourcePoint" />
            <mxPoint x="460" y="-140" as="targetPoint" />
          </mxGeometry>
        </mxCell>
        <mxCell id="lA7uYYmeE6Qmd-85u6qz-41" value="" style="endArrow=none;dashed=1;html=1;strokeWidth=0.5;" parent="1" edge="1">
          <mxGeometry width="50" height="50" relative="1" as="geometry">
            <mxPoint x="510" y="110" as="sourcePoint" />
            <mxPoint x="510" y="-140" as="targetPoint" />
          </mxGeometry>
        </mxCell>
        <mxCell id="lA7uYYmeE6Qmd-85u6qz-42" value="" style="endArrow=none;dashed=1;html=1;strokeWidth=0.5;" parent="1" edge="1">
          <mxGeometry width="50" height="50" relative="1" as="geometry">
            <mxPoint x="560" y="110" as="sourcePoint" />
            <mxPoint x="560" y="-150" as="targetPoint" />
          </mxGeometry>
        </mxCell>
        <mxCell id="lA7uYYmeE6Qmd-85u6qz-43" value="" style="endArrow=none;html=1;strokeWidth=2;" parent="1" edge="1">
          <mxGeometry width="50" height="50" relative="1" as="geometry">
            <mxPoint x="460" as="sourcePoint" />
            <mxPoint x="510" as="targetPoint" />
          </mxGeometry>
        </mxCell>
        <mxCell id="lA7uYYmeE6Qmd-85u6qz-44" value="" style="endArrow=none;html=1;strokeWidth=2;" parent="1" edge="1">
          <mxGeometry width="50" height="50" relative="1" as="geometry">
            <mxPoint x="510" y="-75" as="sourcePoint" />
            <mxPoint x="510" as="targetPoint" />
          </mxGeometry>
        </mxCell>
        <mxCell id="lA7uYYmeE6Qmd-85u6qz-45" value="" style="endArrow=none;dashed=1;html=1;strokeWidth=0.5;" parent="1" edge="1">
          <mxGeometry width="50" height="50" relative="1" as="geometry">
            <mxPoint x="376" y="-10" as="sourcePoint" />
            <mxPoint x="596" y="-10" as="targetPoint" />
          </mxGeometry>
        </mxCell>
        <mxCell id="lA7uYYmeE6Qmd-85u6qz-46" value="" style="endArrow=none;dashed=1;html=1;strokeWidth=0.5;" parent="1" edge="1">
          <mxGeometry width="50" height="50" relative="1" as="geometry">
            <mxPoint x="380" y="40" as="sourcePoint" />
            <mxPoint x="600" y="40" as="targetPoint" />
          </mxGeometry>
        </mxCell>
        <mxCell id="lA7uYYmeE6Qmd-85u6qz-47" value="" style="endArrow=none;dashed=1;html=1;strokeWidth=0.5;" parent="1" edge="1">
          <mxGeometry width="50" height="50" relative="1" as="geometry">
            <mxPoint x="380" y="-60" as="sourcePoint" />
            <mxPoint x="600" y="-60" as="targetPoint" />
          </mxGeometry>
        </mxCell>
        <mxCell id="lA7uYYmeE6Qmd-85u6qz-48" value="" style="endArrow=none;html=1;strokeWidth=2;" parent="1" edge="1">
          <mxGeometry width="50" height="50" relative="1" as="geometry">
            <mxPoint x="467" y="-10" as="sourcePoint" />
            <mxPoint x="467" y="-60" as="targetPoint" />
          </mxGeometry>
        </mxCell>
        <mxCell id="lA7uYYmeE6Qmd-85u6qz-50" value="" style="endArrow=none;html=1;strokeWidth=2;" parent="1" edge="1">
          <mxGeometry width="50" height="50" relative="1" as="geometry">
            <mxPoint x="500" y="-60" as="sourcePoint" />
            <mxPoint x="467" y="-60" as="targetPoint" />
          </mxGeometry>
        </mxCell>
        <mxCell id="lA7uYYmeE6Qmd-85u6qz-51" value="1" style="text;html=1;strokeColor=none;fillColor=none;align=center;verticalAlign=middle;whiteSpace=wrap;rounded=0;" parent="1" vertex="1">
          <mxGeometry x="437" y="-50" width="40" height="20" as="geometry" />
        </mxCell>
        <mxCell id="lA7uYYmeE6Qmd-85u6qz-52" value="b" style="text;html=1;strokeColor=none;fillColor=none;align=center;verticalAlign=middle;whiteSpace=wrap;rounded=0;" parent="1" vertex="1">
          <mxGeometry x="442.5" y="-80" width="87" height="20" as="geometry" />
        </mxCell>
        <mxCell id="lA7uYYmeE6Qmd-85u6qz-54" value="" style="endArrow=none;html=1;strokeWidth=2;entryX=0.776;entryY=0.35;entryDx=0;entryDy=0;entryPerimeter=0;fillColor=#e1d5e7;strokeColor=#9673a6;" parent="1" target="lA7uYYmeE6Qmd-85u6qz-52" edge="1">
          <mxGeometry width="50" height="50" relative="1" as="geometry">
            <mxPoint x="460" as="sourcePoint" />
            <mxPoint x="620" y="-60" as="targetPoint" />
          </mxGeometry>
        </mxCell>
        <mxCell id="lA7uYYmeE6Qmd-85u6qz-56" value="" style="endArrow=none;html=1;strokeWidth=2;fillColor=#d5e8d4;strokeColor=#82b366;entryX=0.67;entryY=0.979;entryDx=0;entryDy=0;entryPerimeter=0;" parent="1" target="lA7uYYmeE6Qmd-85u6qz-52" edge="1">
          <mxGeometry width="50" height="50" relative="1" as="geometry">
            <mxPoint x="467" y="-11" as="sourcePoint" />
            <mxPoint x="500" y="-60" as="targetPoint" />
          </mxGeometry>
        </mxCell>
        <mxCell id="lA7uYYmeE6Qmd-85u6qz-57" value="" style="endArrow=classic;html=1;fillColor=#f8cecc;strokeColor=#b85450;" parent="1" edge="1">
          <mxGeometry width="50" height="50" relative="1" as="geometry">
            <mxPoint x="435" y="319" as="sourcePoint" />
            <mxPoint x="554" y="140.0000000000001" as="targetPoint" />
          </mxGeometry>
        </mxCell>
        <mxCell id="lA7uYYmeE6Qmd-85u6qz-58" value="" style="endArrow=classic;html=1;" parent="1" edge="1">
          <mxGeometry width="50" height="50" relative="1" as="geometry">
            <mxPoint x="434" y="320" as="sourcePoint" />
            <mxPoint x="554" y="320" as="targetPoint" />
          </mxGeometry>
        </mxCell>
        <mxCell id="lA7uYYmeE6Qmd-85u6qz-59" value="" style="endArrow=classic;html=1;" parent="1" edge="1">
          <mxGeometry width="50" height="50" relative="1" as="geometry">
            <mxPoint x="554" y="320" as="sourcePoint" />
            <mxPoint x="554" y="140.0000000000001" as="targetPoint" />
          </mxGeometry>
        </mxCell>
        <mxCell id="lA7uYYmeE6Qmd-85u6qz-62" value="1" style="text;html=1;strokeColor=none;fillColor=none;align=center;verticalAlign=middle;whiteSpace=wrap;rounded=0;" parent="1" vertex="1">
          <mxGeometry x="460" y="290" width="40" height="20" as="geometry" />
        </mxCell>
        <mxCell id="lA7uYYmeE6Qmd-85u6qz-68" value="" style="endArrow=none;dashed=1;html=1;strokeWidth=0.5;" parent="1" edge="1">
          <mxGeometry width="50" height="50" relative="1" as="geometry">
            <mxPoint x="404" y="400" as="sourcePoint" />
            <mxPoint x="404" y="150.0000000000001" as="targetPoint" />
          </mxGeometry>
        </mxCell>
        <mxCell id="lA7uYYmeE6Qmd-85u6qz-69" value="" style="endArrow=none;dashed=1;html=1;strokeWidth=0.5;startArrow=none;" parent="1" source="lA7uYYmeE6Qmd-85u6qz-93" edge="1">
          <mxGeometry width="50" height="50" relative="1" as="geometry">
            <mxPoint x="454" y="400" as="sourcePoint" />
            <mxPoint x="454" y="150.0000000000001" as="targetPoint" />
          </mxGeometry>
        </mxCell>
        <mxCell id="lA7uYYmeE6Qmd-85u6qz-70" value="" style="endArrow=none;dashed=1;html=1;strokeWidth=0.5;" parent="1" edge="1">
          <mxGeometry width="50" height="50" relative="1" as="geometry">
            <mxPoint x="504" y="400" as="sourcePoint" />
            <mxPoint x="504" y="150.0000000000001" as="targetPoint" />
          </mxGeometry>
        </mxCell>
        <mxCell id="lA7uYYmeE6Qmd-85u6qz-71" value="" style="endArrow=none;dashed=1;html=1;strokeWidth=0.5;" parent="1" edge="1">
          <mxGeometry width="50" height="50" relative="1" as="geometry">
            <mxPoint x="554" y="400" as="sourcePoint" />
            <mxPoint x="554" y="140.0000000000001" as="targetPoint" />
          </mxGeometry>
        </mxCell>
        <mxCell id="lA7uYYmeE6Qmd-85u6qz-72" value="" style="endArrow=none;html=1;strokeWidth=2;" parent="1" edge="1">
          <mxGeometry width="50" height="50" relative="1" as="geometry">
            <mxPoint x="454" y="290" as="sourcePoint" />
            <mxPoint x="504" y="290" as="targetPoint" />
          </mxGeometry>
        </mxCell>
        <mxCell id="lA7uYYmeE6Qmd-85u6qz-74" value="" style="endArrow=none;dashed=1;html=1;strokeWidth=0.5;" parent="1" edge="1">
          <mxGeometry width="50" height="50" relative="1" as="geometry">
            <mxPoint x="370" y="280" as="sourcePoint" />
            <mxPoint x="590" y="280" as="targetPoint" />
          </mxGeometry>
        </mxCell>
        <mxCell id="lA7uYYmeE6Qmd-85u6qz-75" value="" style="endArrow=none;dashed=1;html=1;strokeWidth=0.5;startArrow=none;" parent="1" source="lA7uYYmeE6Qmd-85u6qz-92" edge="1">
          <mxGeometry width="50" height="50" relative="1" as="geometry">
            <mxPoint x="374" y="330" as="sourcePoint" />
            <mxPoint x="594" y="330" as="targetPoint" />
          </mxGeometry>
        </mxCell>
        <mxCell id="lA7uYYmeE6Qmd-85u6qz-76" value="" style="endArrow=none;dashed=1;html=1;strokeWidth=0.5;" parent="1" edge="1">
          <mxGeometry width="50" height="50" relative="1" as="geometry">
            <mxPoint x="374" y="230" as="sourcePoint" />
            <mxPoint x="594" y="230" as="targetPoint" />
          </mxGeometry>
        </mxCell>
        <mxCell id="lA7uYYmeE6Qmd-85u6qz-81" value="" style="endArrow=none;html=1;strokeWidth=2;entryX=0.776;entryY=0.35;entryDx=0;entryDy=0;entryPerimeter=0;fillColor=#e1d5e7;strokeColor=#9673a6;" parent="1" edge="1">
          <mxGeometry width="50" height="50" relative="1" as="geometry">
            <mxPoint x="454" y="290" as="sourcePoint" />
            <mxPoint x="504.01200000000006" y="217" as="targetPoint" />
          </mxGeometry>
        </mxCell>
        <mxCell id="lA7uYYmeE6Qmd-85u6qz-82" value="" style="endArrow=none;html=1;strokeWidth=2;fillColor=#dae8fc;strokeColor=#6c8ebf;" parent="1" edge="1">
          <mxGeometry width="50" height="50" relative="1" as="geometry">
            <mxPoint x="454" y="291" as="sourcePoint" />
            <mxPoint x="434" y="320" as="targetPoint" />
          </mxGeometry>
        </mxCell>
        <mxCell id="lA7uYYmeE6Qmd-85u6qz-85" value="" style="endArrow=none;html=1;strokeWidth=2;fillColor=#dae8fc;strokeColor=#6c8ebf;" parent="1" edge="1">
          <mxGeometry width="50" height="50" relative="1" as="geometry">
            <mxPoint x="435" y="320" as="sourcePoint" />
            <mxPoint x="393" y="295" as="targetPoint" />
          </mxGeometry>
        </mxCell>
        <mxCell id="lA7uYYmeE6Qmd-85u6qz-86" value="" style="endArrow=none;html=1;strokeWidth=2;fillColor=#e1d5e7;strokeColor=#9673a6;" parent="1" edge="1">
          <mxGeometry width="50" height="50" relative="1" as="geometry">
            <mxPoint x="430" y="170" as="sourcePoint" />
            <mxPoint x="504" y="216" as="targetPoint" />
          </mxGeometry>
        </mxCell>
        <mxCell id="lA7uYYmeE6Qmd-85u6qz-87" value="" style="endArrow=none;html=1;strokeWidth=2;fillColor=#e1d5e7;strokeColor=#9673a6;" parent="1" edge="1">
          <mxGeometry width="50" height="50" relative="1" as="geometry">
            <mxPoint x="381" y="244" as="sourcePoint" />
            <mxPoint x="455" y="290" as="targetPoint" />
          </mxGeometry>
        </mxCell>
        <mxCell id="lA7uYYmeE6Qmd-85u6qz-84" value="" style="endArrow=none;html=1;strokeWidth=2;fillColor=#dae8fc;strokeColor=#6c8ebf;" parent="1" edge="1">
          <mxGeometry width="50" height="50" relative="1" as="geometry">
            <mxPoint x="454" y="290" as="sourcePoint" />
            <mxPoint x="411" y="263" as="targetPoint" />
          </mxGeometry>
        </mxCell>
        <mxCell id="lA7uYYmeE6Qmd-85u6qz-66" value="deltaDistX" style="text;html=1;align=center;verticalAlign=middle;whiteSpace=wrap;rounded=0;fillColor=#e1d5e7;strokeColor=#9673a6;rotation=0;" parent="1" vertex="1">
          <mxGeometry x="330" y="197" width="87" height="20" as="geometry" />
        </mxCell>
        <mxCell id="lA7uYYmeE6Qmd-85u6qz-67" value="sideDistX" style="text;html=1;strokeColor=#6c8ebf;fillColor=#dae8fc;align=center;verticalAlign=middle;whiteSpace=wrap;rounded=0;rotation=0;" parent="1" vertex="1">
          <mxGeometry x="320" y="280" width="70" height="20" as="geometry" />
        </mxCell>
        <mxCell id="lA7uYYmeE6Qmd-85u6qz-35" value="deltaDistX" style="text;html=1;align=center;verticalAlign=middle;whiteSpace=wrap;rounded=0;fillColor=#e1d5e7;strokeColor=#9673a6;" parent="1" vertex="1">
          <mxGeometry x="540" y="-97" width="87" height="20" as="geometry" />
        </mxCell>
        <mxCell id="lA7uYYmeE6Qmd-85u6qz-36" value="deltaDistY" style="text;html=1;strokeColor=#82b366;fillColor=#d5e8d4;align=center;verticalAlign=middle;whiteSpace=wrap;rounded=0;" parent="1" vertex="1">
          <mxGeometry x="390" y="-97" width="87" height="20" as="geometry" />
        </mxCell>
        <mxCell id="lA7uYYmeE6Qmd-85u6qz-94" value="(mapX + 1) - posX : 1 = sideD : deltaDX&lt;br&gt;&lt;br&gt;sideD = (mapX + 1 - posX) * deltaDX" style="text;html=1;strokeColor=none;fillColor=none;align=center;verticalAlign=middle;whiteSpace=wrap;rounded=0;" parent="1" vertex="1">
          <mxGeometry x="120" y="240" width="240" height="20" as="geometry" />
        </mxCell>
        <mxCell id="lA7uYYmeE6Qmd-85u6qz-92" value="posX" style="text;html=1;strokeColor=none;fillColor=none;align=center;verticalAlign=middle;whiteSpace=wrap;rounded=0;" parent="1" vertex="1">
          <mxGeometry x="402.5" y="320" width="40" height="20" as="geometry" />
        </mxCell>
        <mxCell id="lA7uYYmeE6Qmd-85u6qz-95" value="" style="endArrow=none;dashed=1;html=1;strokeWidth=0.5;" parent="1" target="lA7uYYmeE6Qmd-85u6qz-92" edge="1">
          <mxGeometry width="50" height="50" relative="1" as="geometry">
            <mxPoint x="374" y="330" as="sourcePoint" />
            <mxPoint x="594" y="330" as="targetPoint" />
          </mxGeometry>
        </mxCell>
        <mxCell id="lA7uYYmeE6Qmd-85u6qz-93" value="mapX + 1" style="text;html=1;strokeColor=none;fillColor=none;align=center;verticalAlign=middle;whiteSpace=wrap;rounded=0;" parent="1" vertex="1">
          <mxGeometry x="428.5" y="350" width="57" height="20" as="geometry" />
        </mxCell>
        <mxCell id="lA7uYYmeE6Qmd-85u6qz-96" value="" style="endArrow=none;dashed=1;html=1;strokeWidth=0.5;" parent="1" target="lA7uYYmeE6Qmd-85u6qz-93" edge="1">
          <mxGeometry width="50" height="50" relative="1" as="geometry">
            <mxPoint x="457" y="400" as="sourcePoint" />
            <mxPoint x="454" y="150.0000000000001" as="targetPoint" />
          </mxGeometry>
        </mxCell>
        <mxCell id="lA7uYYmeE6Qmd-85u6qz-97" value="" style="endArrow=classic;html=1;strokeWidth=0.5;exitX=0.5;exitY=0;exitDx=0;exitDy=0;" parent="1" source="lA7uYYmeE6Qmd-85u6qz-93" edge="1">
          <mxGeometry width="50" height="50" relative="1" as="geometry">
            <mxPoint x="490" y="310" as="sourcePoint" />
            <mxPoint x="457" y="320" as="targetPoint" />
          </mxGeometry>
        </mxCell>
        <mxCell id="lA7uYYmeE6Qmd-85u6qz-98" value="" style="endArrow=classic;html=1;strokeWidth=1;" parent="1" edge="1">
          <mxGeometry width="50" height="50" relative="1" as="geometry">
            <mxPoint x="690" y="40" as="sourcePoint" />
            <mxPoint x="1050" y="40" as="targetPoint" />
          </mxGeometry>
        </mxCell>
        <mxCell id="lA7uYYmeE6Qmd-85u6qz-99" value="" style="endArrow=classic;html=1;strokeWidth=1;" parent="1" edge="1">
          <mxGeometry width="50" height="50" relative="1" as="geometry">
            <mxPoint x="720" y="80" as="sourcePoint" />
            <mxPoint x="720" y="-240" as="targetPoint" />
          </mxGeometry>
        </mxCell>
        <mxCell id="lA7uYYmeE6Qmd-85u6qz-100" value="" style="ellipse;whiteSpace=wrap;html=1;" parent="1" vertex="1">
          <mxGeometry x="799" y="-2" width="10" height="10" as="geometry" />
        </mxCell>
        <mxCell id="lA7uYYmeE6Qmd-85u6qz-101" value="" style="endArrow=none;html=1;strokeWidth=1;" parent="1" edge="1">
          <mxGeometry width="50" height="50" relative="1" as="geometry">
            <mxPoint x="750" y="-50" as="sourcePoint" />
            <mxPoint x="860" y="-50" as="targetPoint" />
          </mxGeometry>
        </mxCell>
        <mxCell id="lA7uYYmeE6Qmd-85u6qz-102" value="" style="endArrow=classic;html=1;strokeWidth=1;exitX=1;exitY=0;exitDx=0;exitDy=0;" parent="1" source="lA7uYYmeE6Qmd-85u6qz-100" edge="1">
          <mxGeometry width="50" height="50" relative="1" as="geometry">
            <mxPoint x="810" as="sourcePoint" />
            <mxPoint x="860" y="-50" as="targetPoint" />
          </mxGeometry>
        </mxCell>
        <mxCell id="lA7uYYmeE6Qmd-85u6qz-103" value="" style="endArrow=classic;html=1;strokeWidth=1;exitX=1;exitY=0;exitDx=0;exitDy=0;" parent="1" source="lA7uYYmeE6Qmd-85u6qz-100" edge="1">
          <mxGeometry width="50" height="50" relative="1" as="geometry">
            <mxPoint x="750" y="-10" as="sourcePoint" />
            <mxPoint x="860" as="targetPoint" />
          </mxGeometry>
        </mxCell>
        <mxCell id="lA7uYYmeE6Qmd-85u6qz-104" value="" style="endArrow=none;dashed=1;html=1;strokeWidth=1;" parent="1" edge="1">
          <mxGeometry width="50" height="50" relative="1" as="geometry">
            <mxPoint x="860" as="sourcePoint" />
            <mxPoint x="860" y="-50" as="targetPoint" />
          </mxGeometry>
        </mxCell>
        <mxCell id="lA7uYYmeE6Qmd-85u6qz-105" value="rayDirX" style="text;html=1;strokeColor=none;fillColor=none;align=center;verticalAlign=middle;whiteSpace=wrap;rounded=0;" parent="1" vertex="1">
          <mxGeometry x="813" y="-2" width="40" height="20" as="geometry" />
        </mxCell>
        <mxCell id="lA7uYYmeE6Qmd-85u6qz-106" value="" style="endArrow=none;html=1;strokeWidth=1;" parent="1" edge="1">
          <mxGeometry width="50" height="50" relative="1" as="geometry">
            <mxPoint x="906" y="-138" as="sourcePoint" />
            <mxPoint x="960" y="-97" as="targetPoint" />
          </mxGeometry>
        </mxCell>
        <mxCell id="lA7uYYmeE6Qmd-85u6qz-107" value="" style="endArrow=classic;html=1;strokeWidth=1;exitX=0.93;exitY=0.097;exitDx=0;exitDy=0;exitPerimeter=0;" parent="1" source="lA7uYYmeE6Qmd-85u6qz-100" edge="1">
          <mxGeometry width="50" height="50" relative="1" as="geometry">
            <mxPoint x="810" as="sourcePoint" />
            <mxPoint x="932" y="-118" as="targetPoint" />
          </mxGeometry>
        </mxCell>
        <mxCell id="lA7uYYmeE6Qmd-85u6qz-108" value="" style="endArrow=none;dashed=1;html=1;dashPattern=1 3;strokeWidth=2;" parent="1" edge="1">
          <mxGeometry width="50" height="50" relative="1" as="geometry">
            <mxPoint x="920" as="sourcePoint" />
            <mxPoint x="920" y="-106" as="targetPoint" />
          </mxGeometry>
        </mxCell>
        <mxCell id="lA7uYYmeE6Qmd-85u6qz-109" value="" style="endArrow=classic;html=1;strokeWidth=1;exitX=1;exitY=0;exitDx=0;exitDy=0;" parent="1" source="lA7uYYmeE6Qmd-85u6qz-100" edge="1">
          <mxGeometry width="50" height="50" relative="1" as="geometry">
            <mxPoint x="910" y="-70" as="sourcePoint" />
            <mxPoint x="920" y="-1" as="targetPoint" />
          </mxGeometry>
        </mxCell>
        <mxCell id="lA7uYYmeE6Qmd-85u6qz-110" value="mapX - posX" style="text;html=1;strokeColor=none;fillColor=none;align=center;verticalAlign=middle;whiteSpace=wrap;rounded=0;" parent="1" vertex="1">
          <mxGeometry x="810" y="20" width="100" height="20" as="geometry" />
        </mxCell>
        <mxCell id="lA7uYYmeE6Qmd-85u6qz-111" value="" style="endArrow=none;html=1;strokeWidth=1;entryX=0.08;entryY=0.6;entryDx=0;entryDy=0;entryPerimeter=0;" parent="1" target="lA7uYYmeE6Qmd-85u6qz-110" edge="1">
          <mxGeometry width="50" height="50" relative="1" as="geometry">
            <mxPoint x="805" y="12" as="sourcePoint" />
            <mxPoint x="960" y="-130" as="targetPoint" />
            <Array as="points">
              <mxPoint x="805" y="20" />
            </Array>
          </mxGeometry>
        </mxCell>
        <mxCell id="lA7uYYmeE6Qmd-85u6qz-112" value="" style="endArrow=none;html=1;strokeWidth=1;exitX=0.93;exitY=0.45;exitDx=0;exitDy=0;exitPerimeter=0;" parent="1" source="lA7uYYmeE6Qmd-85u6qz-110" edge="1">
          <mxGeometry width="50" height="50" relative="1" as="geometry">
            <mxPoint x="815" y="22" as="sourcePoint" />
            <mxPoint x="920" y="10" as="targetPoint" />
            <Array as="points">
              <mxPoint x="914" y="23" />
            </Array>
          </mxGeometry>
        </mxCell>
        <mxCell id="lA7uYYmeE6Qmd-85u6qz-114" value="display" style="rounded=0;whiteSpace=wrap;html=1;" parent="1" vertex="1">
          <mxGeometry x="700" y="-320" width="120" height="60" as="geometry" />
        </mxCell>
        <mxCell id="lA7uYYmeE6Qmd-85u6qz-115" value="" style="endArrow=none;dashed=1;html=1;strokeWidth=1;" parent="1" edge="1">
          <mxGeometry width="50" height="50" relative="1" as="geometry">
            <mxPoint x="873" y="-260" as="sourcePoint" />
            <mxPoint x="873" y="-293" as="targetPoint" />
          </mxGeometry>
        </mxCell>
        <mxCell id="lA7uYYmeE6Qmd-85u6qz-116" value="lineHeight = h / prepWallDist" style="text;html=1;strokeColor=none;fillColor=none;align=center;verticalAlign=middle;whiteSpace=wrap;rounded=0;" parent="1" vertex="1">
          <mxGeometry x="960" y="-20" width="180" height="20" as="geometry" />
        </mxCell>
        <mxCell id="lA7uYYmeE6Qmd-85u6qz-117" value="" style="endArrow=none;html=1;strokeWidth=1;exitX=1.003;exitY=0.427;exitDx=0;exitDy=0;exitPerimeter=0;" parent="1" source="lA7uYYmeE6Qmd-85u6qz-114" edge="1">
          <mxGeometry width="50" height="50" relative="1" as="geometry">
            <mxPoint x="780" y="-204" as="sourcePoint" />
            <mxPoint x="900" y="-294" as="targetPoint" />
          </mxGeometry>
        </mxCell>
        <mxCell id="lA7uYYmeE6Qmd-85u6qz-118" value="" style="endArrow=none;html=1;strokeWidth=1;exitX=0.062;exitY=0.994;exitDx=0;exitDy=0;exitPerimeter=0;" parent="1" edge="1">
          <mxGeometry width="50" height="50" relative="1" as="geometry">
            <mxPoint x="819.9999999999999" y="-260" as="sourcePoint" />
            <mxPoint x="1010" y="-260" as="targetPoint" />
          </mxGeometry>
        </mxCell>
        <mxCell id="lA7uYYmeE6Qmd-85u6qz-119" value="height" style="text;html=1;strokeColor=none;fillColor=none;align=center;verticalAlign=middle;whiteSpace=wrap;rounded=0;" parent="1" vertex="1">
          <mxGeometry x="833" y="-310" width="40" height="20" as="geometry" />
        </mxCell>
        <mxCell id="lA7uYYmeE6Qmd-85u6qz-120" value="" style="endArrow=none;html=1;strokeWidth=1;exitX=1;exitY=0;exitDx=0;exitDy=0;" parent="1" source="lA7uYYmeE6Qmd-85u6qz-114" edge="1">
          <mxGeometry width="50" height="50" relative="1" as="geometry">
            <mxPoint x="830" y="-250" as="sourcePoint" />
            <mxPoint x="1010" y="-320" as="targetPoint" />
          </mxGeometry>
        </mxCell>
        <mxCell id="lA7uYYmeE6Qmd-85u6qz-121" value="" style="endArrow=none;dashed=1;html=1;strokeWidth=1;" parent="1" edge="1">
          <mxGeometry width="50" height="50" relative="1" as="geometry">
            <mxPoint x="830" y="-260" as="sourcePoint" />
            <mxPoint x="830" y="-320" as="targetPoint" />
          </mxGeometry>
        </mxCell>
        <mxCell id="lA7uYYmeE6Qmd-85u6qz-122" value="prepWallDist = (mapX - posX) / rayDirX" style="text;html=1;strokeColor=none;fillColor=none;align=center;verticalAlign=middle;whiteSpace=wrap;rounded=0;" parent="1" vertex="1">
          <mxGeometry x="950" y="-40" width="230" height="20" as="geometry" />
        </mxCell>
        <mxCell id="lA7uYYmeE6Qmd-85u6qz-123" value="lineHeight" style="text;html=1;strokeColor=none;fillColor=none;align=center;verticalAlign=middle;whiteSpace=wrap;rounded=0;" parent="1" vertex="1">
          <mxGeometry x="882" y="-295" width="57" height="20" as="geometry" />
        </mxCell>
        <mxCell id="lA7uYYmeE6Qmd-85u6qz-124" value="" style="endArrow=none;dashed=1;html=1;strokeWidth=1;" parent="1" edge="1">
          <mxGeometry width="50" height="50" relative="1" as="geometry">
            <mxPoint x="950" y="-273.5" as="sourcePoint" />
            <mxPoint x="950" y="-306.5" as="targetPoint" />
          </mxGeometry>
        </mxCell>
        <mxCell id="lA7uYYmeE6Qmd-85u6qz-125" value="" style="endArrow=none;html=1;strokeWidth=1;" parent="1" edge="1">
          <mxGeometry width="50" height="50" relative="1" as="geometry">
            <mxPoint x="931" y="-306" as="sourcePoint" />
            <mxPoint x="991" y="-306" as="targetPoint" />
          </mxGeometry>
        </mxCell>
        <mxCell id="lA7uYYmeE6Qmd-85u6qz-126" value="" style="endArrow=none;html=1;strokeWidth=1;" parent="1" edge="1">
          <mxGeometry width="50" height="50" relative="1" as="geometry">
            <mxPoint x="933" y="-274" as="sourcePoint" />
            <mxPoint x="993" y="-274" as="targetPoint" />
          </mxGeometry>
        </mxCell>
        <mxCell id="lA7uYYmeE6Qmd-85u6qz-127" value="drawstart" style="text;html=1;strokeColor=none;fillColor=none;align=center;verticalAlign=middle;whiteSpace=wrap;rounded=0;" parent="1" vertex="1">
          <mxGeometry x="994" y="-283" width="57" height="20" as="geometry" />
        </mxCell>
        <mxCell id="lA7uYYmeE6Qmd-85u6qz-128" value="drawend" style="text;html=1;strokeColor=none;fillColor=none;align=center;verticalAlign=middle;whiteSpace=wrap;rounded=0;" parent="1" vertex="1">
          <mxGeometry x="994" y="-315" width="57" height="20" as="geometry" />
        </mxCell>
        <mxCell id="-CFEwAlRHSnfaY5DN0Q2-1" value="" style="curved=1;endArrow=classic;html=1;strokeWidth=2;" edge="1" parent="1">
          <mxGeometry width="50" height="50" relative="1" as="geometry">
            <mxPoint x="803.66" y="-106" as="sourcePoint" />
            <mxPoint x="803.66" y="-206" as="targetPoint" />
            <Array as="points" />
          </mxGeometry>
        </mxCell>
        <mxCell id="-CFEwAlRHSnfaY5DN0Q2-2" value="display" style="text;html=1;strokeColor=none;fillColor=none;align=center;verticalAlign=middle;whiteSpace=wrap;rounded=0;" vertex="1" parent="1">
          <mxGeometry x="775.5" y="-70" width="57" height="20" as="geometry" />
        </mxCell>
      </root>
    </mxGraphModel>
  </diagram>
</mxfile>
